<?xml version="1.0" standalone="no"?>
<!DOCTYPE svg PUBLIC "-//W3C//DTD SVG 20010904//EN"
 "http://www.w3.org/TR/2001/REC-SVG-20010904/DTD/svg10.dtd">
<svg version="1.0" xmlns="http://www.w3.org/2000/svg"
 width="2078.000000pt" height="2078.000000pt" viewBox="0 0 2078.000000 2078.000000"
 preserveAspectRatio="xMidYMid meet">
<metadata>
Created by potrace 1.16, written by Peter Selinger 2001-2019
</metadata>
<g transform="translate(0.000000,2078.000000) scale(0.100000,-0.100000)"
fill="#000000" stroke="none">
<path d="M8325 15240 c-252 -39 -509 -187 -684 -395 -82 -97 -5450 -7685
-5497 -7771 -176 -318 -124 -777 127 -1114 67 -90 188 -207 266 -257 256 -163
555 -210 843 -132 106 29 283 117 378 189 182 137 109 37 2493 3410 1226 1735
2231 3155 2232 3156 1 2 405 -567 897 -1263 935 -1323 978 -1380 1128 -1492
387 -290 886 -307 1283 -45 132 87 244 201 374 381 43 59 171 230 285 378 114
149 246 326 293 394 l87 123 0 -2138 c0 -2292 -1 -2220 49 -2399 110 -392 406
-706 751 -797 l85 -23 1135 0 1135 0 157 28 c311 55 579 142 853 278 522 258
954 645 1261 1131 83 131 221 411 273 553 85 231 138 453 166 695 20 169 20
512 0 687 -61 525 -254 1012 -562 1420 -48 64 -94 124 -102 134 -12 17 -6 28
56 106 340 429 543 920 608 1469 18 150 20 507 5 645 -61 542 -236 989 -554
1414 -107 143 -379 419 -516 525 -399 307 -845 510 -1339 610 -304 61 -316 61
-1531 58 l-1105 -3 -96 -27 c-245 -67 -437 -190 -570 -365 -24 -32 -54 -67
-65 -78 -12 -11 -320 -441 -685 -955 -364 -514 -754 -1064 -867 -1222 -112
-159 -205 -288 -207 -288 -2 0 -405 570 -897 1267 -948 1345 -977 1382 -1142
1505 -105 78 -258 152 -381 184 -112 29 -313 40 -420 24z m7525 -2180 c185
-23 315 -85 440 -210 100 -100 141 -166 186 -298 79 -233 65 -473 -41 -687
-98 -197 -257 -327 -472 -387 -73 -21 -104 -22 -515 -26 l-438 -3 0 810 0 811
378 0 c208 0 416 -5 462 -10z m-40 -3756 c183 -34 333 -109 457 -228 177 -167
266 -378 266 -626 -1 -225 -75 -417 -220 -571 -106 -112 -225 -182 -398 -232
-65 -19 -102 -21 -487 -25 l-418 -3 0 850 0 851 359 0 c284 0 376 -3 441 -16z"/>
</g>
</svg>
